<mxfile host="app.diagrams.net" modified="2024-10-23T16:26:00.393Z" agent="Mozilla/5.0 (Windows NT 10.0; Win64; x64) AppleWebKit/537.36 (KHTML, like Gecko) Chrome/130.0.0.0 Safari/537.36" etag="dIZD2MARBgrFB6BRup1d" version="24.4.8" type="github">
  <diagram id="R2lEEEUBdFMjLlhIrx00" name="Page-1">
    <mxGraphModel dx="2317" dy="1823" grid="1" gridSize="10" guides="1" tooltips="1" connect="1" arrows="1" fold="1" page="1" pageScale="1" pageWidth="850" pageHeight="1100" math="0" shadow="0" extFonts="Permanent Marker^https://fonts.googleapis.com/css?family=Permanent+Marker">
      <root>
        <mxCell id="0" />
        <mxCell id="1" parent="0" />
        <mxCell id="7aG0326rbREsG-0OaRxS-46" style="edgeStyle=none;rounded=0;orthogonalLoop=1;jettySize=auto;html=1;exitX=0;exitY=0;exitDx=0;exitDy=0;strokeColor=default;align=center;verticalAlign=middle;fontFamily=Helvetica;fontSize=11;fontColor=default;labelBackgroundColor=default;endArrow=none;endFill=0;" edge="1" parent="1" source="7aG0326rbREsG-0OaRxS-36" target="7aG0326rbREsG-0OaRxS-37">
          <mxGeometry relative="1" as="geometry" />
        </mxCell>
        <mxCell id="7aG0326rbREsG-0OaRxS-49" style="edgeStyle=none;rounded=0;orthogonalLoop=1;jettySize=auto;html=1;exitX=1;exitY=0;exitDx=0;exitDy=0;strokeColor=default;align=center;verticalAlign=middle;fontFamily=Helvetica;fontSize=11;fontColor=default;labelBackgroundColor=default;endArrow=none;endFill=0;" edge="1" parent="1" source="7aG0326rbREsG-0OaRxS-36" target="7aG0326rbREsG-0OaRxS-43">
          <mxGeometry relative="1" as="geometry" />
        </mxCell>
        <mxCell id="7aG0326rbREsG-0OaRxS-50" style="edgeStyle=none;rounded=0;orthogonalLoop=1;jettySize=auto;html=1;exitX=1;exitY=0.25;exitDx=0;exitDy=0;entryX=0;entryY=0.5;entryDx=0;entryDy=0;strokeColor=default;align=center;verticalAlign=middle;fontFamily=Helvetica;fontSize=11;fontColor=default;labelBackgroundColor=default;endArrow=none;endFill=0;" edge="1" parent="1" source="7aG0326rbREsG-0OaRxS-36" target="7aG0326rbREsG-0OaRxS-42">
          <mxGeometry relative="1" as="geometry" />
        </mxCell>
        <mxCell id="7aG0326rbREsG-0OaRxS-51" style="edgeStyle=none;rounded=0;orthogonalLoop=1;jettySize=auto;html=1;exitX=1;exitY=0.75;exitDx=0;exitDy=0;strokeColor=default;align=center;verticalAlign=middle;fontFamily=Helvetica;fontSize=11;fontColor=default;labelBackgroundColor=default;endArrow=none;endFill=0;" edge="1" parent="1" source="7aG0326rbREsG-0OaRxS-36" target="7aG0326rbREsG-0OaRxS-41">
          <mxGeometry relative="1" as="geometry" />
        </mxCell>
        <mxCell id="7aG0326rbREsG-0OaRxS-58" style="edgeStyle=none;rounded=0;orthogonalLoop=1;jettySize=auto;html=1;exitX=0;exitY=1;exitDx=0;exitDy=0;entryX=0.5;entryY=0;entryDx=0;entryDy=0;strokeColor=default;align=center;verticalAlign=middle;fontFamily=Helvetica;fontSize=11;fontColor=default;labelBackgroundColor=default;endArrow=none;endFill=0;" edge="1" parent="1" source="7aG0326rbREsG-0OaRxS-36" target="7aG0326rbREsG-0OaRxS-57">
          <mxGeometry relative="1" as="geometry" />
        </mxCell>
        <mxCell id="7aG0326rbREsG-0OaRxS-67" style="edgeStyle=none;rounded=0;orthogonalLoop=1;jettySize=auto;html=1;exitX=1;exitY=1;exitDx=0;exitDy=0;entryX=0.5;entryY=0;entryDx=0;entryDy=0;strokeColor=default;align=center;verticalAlign=middle;fontFamily=Helvetica;fontSize=11;fontColor=default;labelBackgroundColor=default;endArrow=none;endFill=0;" edge="1" parent="1" source="7aG0326rbREsG-0OaRxS-36" target="7aG0326rbREsG-0OaRxS-66">
          <mxGeometry relative="1" as="geometry" />
        </mxCell>
        <mxCell id="7aG0326rbREsG-0OaRxS-138" style="edgeStyle=none;rounded=0;orthogonalLoop=1;jettySize=auto;html=1;exitX=0.75;exitY=0;exitDx=0;exitDy=0;entryX=0;entryY=0.5;entryDx=0;entryDy=0;strokeColor=default;align=center;verticalAlign=middle;fontFamily=Helvetica;fontSize=11;fontColor=default;labelBackgroundColor=default;endArrow=none;endFill=0;" edge="1" parent="1" source="7aG0326rbREsG-0OaRxS-36" target="7aG0326rbREsG-0OaRxS-137">
          <mxGeometry relative="1" as="geometry" />
        </mxCell>
        <mxCell id="7aG0326rbREsG-0OaRxS-144" style="edgeStyle=none;rounded=0;orthogonalLoop=1;jettySize=auto;html=1;exitX=0.75;exitY=0;exitDx=0;exitDy=0;entryX=0;entryY=0.5;entryDx=0;entryDy=0;strokeColor=default;align=center;verticalAlign=middle;fontFamily=Helvetica;fontSize=11;fontColor=default;labelBackgroundColor=default;endArrow=none;endFill=0;" edge="1" parent="1" source="7aG0326rbREsG-0OaRxS-36" target="7aG0326rbREsG-0OaRxS-143">
          <mxGeometry relative="1" as="geometry" />
        </mxCell>
        <mxCell id="7aG0326rbREsG-0OaRxS-36" value="&lt;font style=&quot;font-size: 14px;&quot;&gt;Корисник&lt;/font&gt;" style="whiteSpace=wrap;html=1;align=center;" vertex="1" parent="1">
          <mxGeometry x="140" y="180" width="110" height="50" as="geometry" />
        </mxCell>
        <mxCell id="7aG0326rbREsG-0OaRxS-37" value="име" style="ellipse;whiteSpace=wrap;html=1;align=center;" vertex="1" parent="1">
          <mxGeometry x="-30" y="70" width="100" height="40" as="geometry" />
        </mxCell>
        <mxCell id="7aG0326rbREsG-0OaRxS-38" value="презиме" style="ellipse;whiteSpace=wrap;html=1;align=center;" vertex="1" parent="1">
          <mxGeometry x="65" y="40" width="100" height="40" as="geometry" />
        </mxCell>
        <mxCell id="7aG0326rbREsG-0OaRxS-39" value="кориснично &lt;br&gt;име" style="ellipse;whiteSpace=wrap;html=1;align=center;" vertex="1" parent="1">
          <mxGeometry x="170" y="20" width="100" height="40" as="geometry" />
        </mxCell>
        <mxCell id="7aG0326rbREsG-0OaRxS-40" value="емаил&amp;nbsp;" style="ellipse;whiteSpace=wrap;html=1;align=center;" vertex="1" parent="1">
          <mxGeometry x="-30" y="135" width="100" height="40" as="geometry" />
        </mxCell>
        <mxCell id="7aG0326rbREsG-0OaRxS-41" value="дат. раѓање" style="ellipse;whiteSpace=wrap;html=1;align=center;" vertex="1" parent="1">
          <mxGeometry x="-30" y="195" width="100" height="40" as="geometry" />
        </mxCell>
        <mxCell id="7aG0326rbREsG-0OaRxS-42" value="дат.регистрација" style="ellipse;whiteSpace=wrap;html=1;align=center;" vertex="1" parent="1">
          <mxGeometry x="280" y="190" width="100" height="40" as="geometry" />
        </mxCell>
        <mxCell id="7aG0326rbREsG-0OaRxS-43" value="пол" style="ellipse;whiteSpace=wrap;html=1;align=center;" vertex="1" parent="1">
          <mxGeometry x="300" y="145" width="100" height="40" as="geometry" />
        </mxCell>
        <mxCell id="7aG0326rbREsG-0OaRxS-45" style="rounded=0;orthogonalLoop=1;jettySize=auto;html=1;exitX=0;exitY=0.25;exitDx=0;exitDy=0;entryX=0.78;entryY=0.975;entryDx=0;entryDy=0;entryPerimeter=0;endArrow=none;endFill=0;" edge="1" parent="1" source="7aG0326rbREsG-0OaRxS-36" target="7aG0326rbREsG-0OaRxS-40">
          <mxGeometry relative="1" as="geometry" />
        </mxCell>
        <mxCell id="7aG0326rbREsG-0OaRxS-47" style="edgeStyle=none;rounded=0;orthogonalLoop=1;jettySize=auto;html=1;exitX=0.25;exitY=0;exitDx=0;exitDy=0;entryX=0.44;entryY=1;entryDx=0;entryDy=0;entryPerimeter=0;strokeColor=default;align=center;verticalAlign=middle;fontFamily=Helvetica;fontSize=11;fontColor=default;labelBackgroundColor=default;endArrow=none;endFill=0;" edge="1" parent="1" source="7aG0326rbREsG-0OaRxS-36" target="7aG0326rbREsG-0OaRxS-38">
          <mxGeometry relative="1" as="geometry" />
        </mxCell>
        <mxCell id="7aG0326rbREsG-0OaRxS-48" style="edgeStyle=none;rounded=0;orthogonalLoop=1;jettySize=auto;html=1;exitX=0.5;exitY=0;exitDx=0;exitDy=0;entryX=0.23;entryY=0.9;entryDx=0;entryDy=0;entryPerimeter=0;strokeColor=default;align=center;verticalAlign=middle;fontFamily=Helvetica;fontSize=11;fontColor=default;labelBackgroundColor=default;endArrow=none;endFill=0;" edge="1" parent="1" target="7aG0326rbREsG-0OaRxS-39">
          <mxGeometry relative="1" as="geometry">
            <mxPoint x="190" y="180" as="sourcePoint" />
            <mxPoint x="172" y="52" as="targetPoint" />
          </mxGeometry>
        </mxCell>
        <mxCell id="7aG0326rbREsG-0OaRxS-55" style="edgeStyle=none;rounded=0;orthogonalLoop=1;jettySize=auto;html=1;exitX=0.25;exitY=1;exitDx=0;exitDy=0;strokeColor=default;align=center;verticalAlign=middle;fontFamily=Helvetica;fontSize=11;fontColor=default;labelBackgroundColor=default;endArrow=none;endFill=0;" edge="1" parent="1" source="7aG0326rbREsG-0OaRxS-52" target="7aG0326rbREsG-0OaRxS-53">
          <mxGeometry relative="1" as="geometry" />
        </mxCell>
        <mxCell id="7aG0326rbREsG-0OaRxS-56" style="edgeStyle=none;rounded=0;orthogonalLoop=1;jettySize=auto;html=1;exitX=0.75;exitY=1;exitDx=0;exitDy=0;entryX=0;entryY=0;entryDx=0;entryDy=0;strokeColor=default;align=center;verticalAlign=middle;fontFamily=Helvetica;fontSize=11;fontColor=default;labelBackgroundColor=default;endArrow=none;endFill=0;" edge="1" parent="1" source="7aG0326rbREsG-0OaRxS-52" target="7aG0326rbREsG-0OaRxS-54">
          <mxGeometry relative="1" as="geometry" />
        </mxCell>
        <mxCell id="7aG0326rbREsG-0OaRxS-52" value="&lt;font style=&quot;font-size: 14px;&quot;&gt;Листа&lt;/font&gt;" style="whiteSpace=wrap;html=1;align=center;fontFamily=Helvetica;fontSize=11;fontColor=default;labelBackgroundColor=default;" vertex="1" parent="1">
          <mxGeometry x="145" y="360" width="100" height="40" as="geometry" />
        </mxCell>
        <mxCell id="7aG0326rbREsG-0OaRxS-53" value="име" style="ellipse;whiteSpace=wrap;html=1;align=center;fontFamily=Helvetica;fontSize=11;fontColor=default;labelBackgroundColor=default;" vertex="1" parent="1">
          <mxGeometry x="80" y="430" width="100" height="40" as="geometry" />
        </mxCell>
        <mxCell id="7aG0326rbREsG-0OaRxS-54" value="датум креирање" style="ellipse;whiteSpace=wrap;html=1;align=center;" vertex="1" parent="1">
          <mxGeometry x="230" y="430" width="100" height="40" as="geometry" />
        </mxCell>
        <mxCell id="7aG0326rbREsG-0OaRxS-57" value="&lt;font style=&quot;font-size: 14px;&quot;&gt;креира&lt;/font&gt;" style="shape=rhombus;perimeter=rhombusPerimeter;whiteSpace=wrap;html=1;align=center;fontFamily=Helvetica;fontSize=11;fontColor=default;labelBackgroundColor=default;" vertex="1" parent="1">
          <mxGeometry x="70" y="270" width="90" height="50" as="geometry" />
        </mxCell>
        <mxCell id="7aG0326rbREsG-0OaRxS-59" style="edgeStyle=none;rounded=0;orthogonalLoop=1;jettySize=auto;html=1;exitX=0.5;exitY=1;exitDx=0;exitDy=0;entryX=0.07;entryY=0.05;entryDx=0;entryDy=0;entryPerimeter=0;strokeColor=default;align=center;verticalAlign=middle;fontFamily=Helvetica;fontSize=11;fontColor=default;labelBackgroundColor=default;endArrow=none;endFill=0;shape=link;" edge="1" parent="1" source="7aG0326rbREsG-0OaRxS-57" target="7aG0326rbREsG-0OaRxS-52">
          <mxGeometry relative="1" as="geometry" />
        </mxCell>
        <mxCell id="7aG0326rbREsG-0OaRxS-63" value="N" style="text;strokeColor=none;align=center;fillColor=none;html=1;verticalAlign=middle;whiteSpace=wrap;rounded=0;fontFamily=Helvetica;fontSize=11;fontColor=default;labelBackgroundColor=default;" vertex="1" parent="1">
          <mxGeometry x="130" y="330" width="60" height="30" as="geometry" />
        </mxCell>
        <mxCell id="7aG0326rbREsG-0OaRxS-64" value="M" style="text;strokeColor=none;align=center;fillColor=none;html=1;verticalAlign=middle;whiteSpace=wrap;rounded=0;fontFamily=Helvetica;fontSize=11;fontColor=default;labelBackgroundColor=default;" vertex="1" parent="1">
          <mxGeometry x="110" y="230" width="60" height="30" as="geometry" />
        </mxCell>
        <mxCell id="7aG0326rbREsG-0OaRxS-76" style="edgeStyle=none;rounded=0;orthogonalLoop=1;jettySize=auto;html=1;exitX=0.5;exitY=1;exitDx=0;exitDy=0;entryX=1;entryY=0;entryDx=0;entryDy=0;strokeColor=default;align=center;verticalAlign=middle;fontFamily=Helvetica;fontSize=11;fontColor=default;labelBackgroundColor=default;endArrow=none;endFill=0;" edge="1" parent="1" source="7aG0326rbREsG-0OaRxS-66" target="7aG0326rbREsG-0OaRxS-52">
          <mxGeometry relative="1" as="geometry" />
        </mxCell>
        <mxCell id="7aG0326rbREsG-0OaRxS-66" value="&lt;font style=&quot;font-size: 12px;&quot;&gt;споделува&lt;/font&gt;" style="shape=rhombus;perimeter=rhombusPerimeter;whiteSpace=wrap;html=1;align=center;fontFamily=Helvetica;fontSize=11;fontColor=default;labelBackgroundColor=default;" vertex="1" parent="1">
          <mxGeometry x="230" y="270" width="90" height="50" as="geometry" />
        </mxCell>
        <mxCell id="7aG0326rbREsG-0OaRxS-72" style="edgeStyle=none;rounded=0;orthogonalLoop=1;jettySize=auto;html=1;exitX=0;exitY=0.5;exitDx=0;exitDy=0;entryX=1;entryY=0.5;entryDx=0;entryDy=0;strokeColor=default;align=center;verticalAlign=middle;fontFamily=Helvetica;fontSize=11;fontColor=default;labelBackgroundColor=default;endArrow=none;endFill=0;" edge="1" parent="1" source="7aG0326rbREsG-0OaRxS-69" target="7aG0326rbREsG-0OaRxS-66">
          <mxGeometry relative="1" as="geometry" />
        </mxCell>
        <mxCell id="7aG0326rbREsG-0OaRxS-69" value="датум" style="ellipse;whiteSpace=wrap;html=1;align=center;fontFamily=Helvetica;fontSize=11;fontColor=default;labelBackgroundColor=default;" vertex="1" parent="1">
          <mxGeometry x="330" y="270" width="60" height="30" as="geometry" />
        </mxCell>
        <mxCell id="7aG0326rbREsG-0OaRxS-71" value="коментар" style="ellipse;whiteSpace=wrap;html=1;align=center;fontFamily=Helvetica;fontSize=11;fontColor=default;labelBackgroundColor=default;" vertex="1" parent="1">
          <mxGeometry x="330" y="320" width="60" height="30" as="geometry" />
        </mxCell>
        <mxCell id="7aG0326rbREsG-0OaRxS-73" style="edgeStyle=none;rounded=0;orthogonalLoop=1;jettySize=auto;html=1;exitX=0;exitY=0.5;exitDx=0;exitDy=0;entryX=0.811;entryY=0.64;entryDx=0;entryDy=0;entryPerimeter=0;strokeColor=default;align=center;verticalAlign=middle;fontFamily=Helvetica;fontSize=11;fontColor=default;labelBackgroundColor=default;endArrow=none;endFill=0;" edge="1" parent="1" source="7aG0326rbREsG-0OaRxS-71" target="7aG0326rbREsG-0OaRxS-66">
          <mxGeometry relative="1" as="geometry" />
        </mxCell>
        <mxCell id="7aG0326rbREsG-0OaRxS-77" value="N" style="text;strokeColor=none;align=center;fillColor=none;html=1;verticalAlign=middle;whiteSpace=wrap;rounded=0;fontFamily=Helvetica;fontSize=11;fontColor=default;labelBackgroundColor=default;" vertex="1" parent="1">
          <mxGeometry x="240" y="360" width="40" height="20" as="geometry" />
        </mxCell>
        <mxCell id="7aG0326rbREsG-0OaRxS-78" value="M" style="text;strokeColor=none;align=center;fillColor=none;html=1;verticalAlign=middle;whiteSpace=wrap;rounded=0;fontFamily=Helvetica;fontSize=11;fontColor=default;labelBackgroundColor=default;" vertex="1" parent="1">
          <mxGeometry x="220" y="230" width="40" height="20" as="geometry" />
        </mxCell>
        <mxCell id="7aG0326rbREsG-0OaRxS-79" value="Туристичко место" style="whiteSpace=wrap;html=1;align=center;fontFamily=Helvetica;fontSize=11;fontColor=default;labelBackgroundColor=default;" vertex="1" parent="1">
          <mxGeometry x="600" y="90" width="100" height="40" as="geometry" />
        </mxCell>
        <mxCell id="7aG0326rbREsG-0OaRxS-85" style="edgeStyle=none;rounded=0;orthogonalLoop=1;jettySize=auto;html=1;exitX=1;exitY=0.5;exitDx=0;exitDy=0;entryX=0.5;entryY=0;entryDx=0;entryDy=0;strokeColor=default;align=center;verticalAlign=middle;fontFamily=Helvetica;fontSize=11;fontColor=default;labelBackgroundColor=default;endArrow=none;endFill=0;" edge="1" parent="1" source="7aG0326rbREsG-0OaRxS-80" target="7aG0326rbREsG-0OaRxS-83">
          <mxGeometry relative="1" as="geometry" />
        </mxCell>
        <mxCell id="7aG0326rbREsG-0OaRxS-80" value="&lt;font style=&quot;font-size: 14px;&quot;&gt;d&lt;/font&gt;" style="ellipse;whiteSpace=wrap;html=1;aspect=fixed;fontFamily=Helvetica;fontSize=11;fontColor=default;labelBackgroundColor=default;" vertex="1" parent="1">
          <mxGeometry x="635" y="180" width="30" height="30" as="geometry" />
        </mxCell>
        <mxCell id="7aG0326rbREsG-0OaRxS-81" style="edgeStyle=none;rounded=0;orthogonalLoop=1;jettySize=auto;html=1;exitX=0.5;exitY=1;exitDx=0;exitDy=0;strokeColor=default;align=center;verticalAlign=middle;fontFamily=Helvetica;fontSize=11;fontColor=default;labelBackgroundColor=default;endArrow=none;endFill=0;shape=link;" edge="1" parent="1" source="7aG0326rbREsG-0OaRxS-79" target="7aG0326rbREsG-0OaRxS-80">
          <mxGeometry relative="1" as="geometry" />
        </mxCell>
        <mxCell id="7aG0326rbREsG-0OaRxS-84" style="edgeStyle=none;rounded=0;orthogonalLoop=1;jettySize=auto;html=1;exitX=0.5;exitY=0;exitDx=0;exitDy=0;entryX=0;entryY=0.5;entryDx=0;entryDy=0;strokeColor=default;align=center;verticalAlign=middle;fontFamily=Helvetica;fontSize=11;fontColor=default;labelBackgroundColor=default;endArrow=none;endFill=0;" edge="1" parent="1" source="7aG0326rbREsG-0OaRxS-82" target="7aG0326rbREsG-0OaRxS-80">
          <mxGeometry relative="1" as="geometry" />
        </mxCell>
        <mxCell id="7aG0326rbREsG-0OaRxS-100" value="" style="edgeStyle=none;rounded=0;orthogonalLoop=1;jettySize=auto;html=1;strokeColor=default;align=center;verticalAlign=middle;fontFamily=Helvetica;fontSize=11;fontColor=default;labelBackgroundColor=default;endArrow=none;endFill=0;" edge="1" parent="1" source="7aG0326rbREsG-0OaRxS-82" target="7aG0326rbREsG-0OaRxS-99">
          <mxGeometry relative="1" as="geometry" />
        </mxCell>
        <mxCell id="7aG0326rbREsG-0OaRxS-110" style="edgeStyle=none;rounded=0;orthogonalLoop=1;jettySize=auto;html=1;exitX=0.25;exitY=1;exitDx=0;exitDy=0;entryX=0;entryY=0.5;entryDx=0;entryDy=0;strokeColor=default;align=center;verticalAlign=middle;fontFamily=Helvetica;fontSize=11;fontColor=default;labelBackgroundColor=default;endArrow=none;endFill=0;" edge="1" parent="1" source="7aG0326rbREsG-0OaRxS-82" target="7aG0326rbREsG-0OaRxS-107">
          <mxGeometry relative="1" as="geometry" />
        </mxCell>
        <mxCell id="7aG0326rbREsG-0OaRxS-111" style="edgeStyle=none;rounded=0;orthogonalLoop=1;jettySize=auto;html=1;exitX=0.75;exitY=1;exitDx=0;exitDy=0;entryX=1;entryY=0.5;entryDx=0;entryDy=0;strokeColor=default;align=center;verticalAlign=middle;fontFamily=Helvetica;fontSize=11;fontColor=default;labelBackgroundColor=default;endArrow=none;endFill=0;" edge="1" parent="1" source="7aG0326rbREsG-0OaRxS-82" target="7aG0326rbREsG-0OaRxS-107">
          <mxGeometry relative="1" as="geometry" />
        </mxCell>
        <mxCell id="7aG0326rbREsG-0OaRxS-82" value="Град" style="whiteSpace=wrap;html=1;align=center;fontFamily=Helvetica;fontSize=11;fontColor=default;labelBackgroundColor=default;" vertex="1" parent="1">
          <mxGeometry x="460" y="240" width="100" height="40" as="geometry" />
        </mxCell>
        <mxCell id="7aG0326rbREsG-0OaRxS-92" style="edgeStyle=none;rounded=0;orthogonalLoop=1;jettySize=auto;html=1;exitX=1;exitY=0.5;exitDx=0;exitDy=0;entryX=0;entryY=1;entryDx=0;entryDy=0;strokeColor=default;align=center;verticalAlign=middle;fontFamily=Helvetica;fontSize=11;fontColor=default;labelBackgroundColor=default;endArrow=none;endFill=0;" edge="1" parent="1" source="7aG0326rbREsG-0OaRxS-83" target="7aG0326rbREsG-0OaRxS-89">
          <mxGeometry relative="1" as="geometry" />
        </mxCell>
        <mxCell id="7aG0326rbREsG-0OaRxS-83" value="Објект" style="whiteSpace=wrap;html=1;align=center;fontFamily=Helvetica;fontSize=11;fontColor=default;labelBackgroundColor=default;" vertex="1" parent="1">
          <mxGeometry x="770" y="240" width="100" height="40" as="geometry" />
        </mxCell>
        <mxCell id="7aG0326rbREsG-0OaRxS-87" value="" style="edgeStyle=none;rounded=0;orthogonalLoop=1;jettySize=auto;html=1;strokeColor=default;align=center;verticalAlign=middle;fontFamily=Helvetica;fontSize=11;fontColor=default;labelBackgroundColor=default;endArrow=none;endFill=0;" edge="1" parent="1" source="7aG0326rbREsG-0OaRxS-86" target="7aG0326rbREsG-0OaRxS-79">
          <mxGeometry relative="1" as="geometry" />
        </mxCell>
        <mxCell id="7aG0326rbREsG-0OaRxS-86" value="име" style="ellipse;whiteSpace=wrap;html=1;align=center;" vertex="1" parent="1">
          <mxGeometry x="730" y="60" width="100" height="40" as="geometry" />
        </mxCell>
        <mxCell id="7aG0326rbREsG-0OaRxS-91" value="" style="edgeStyle=none;rounded=0;orthogonalLoop=1;jettySize=auto;html=1;strokeColor=default;align=center;verticalAlign=middle;fontFamily=Helvetica;fontSize=11;fontColor=default;labelBackgroundColor=default;endArrow=none;endFill=0;entryX=0.66;entryY=-0.075;entryDx=0;entryDy=0;entryPerimeter=0;" edge="1" parent="1" source="7aG0326rbREsG-0OaRxS-88" target="7aG0326rbREsG-0OaRxS-83">
          <mxGeometry relative="1" as="geometry" />
        </mxCell>
        <mxCell id="7aG0326rbREsG-0OaRxS-88" value="адреса" style="ellipse;whiteSpace=wrap;html=1;align=center;" vertex="1" parent="1">
          <mxGeometry x="790" y="170" width="90" height="40" as="geometry" />
        </mxCell>
        <mxCell id="7aG0326rbREsG-0OaRxS-96" style="edgeStyle=none;rounded=0;orthogonalLoop=1;jettySize=auto;html=1;exitX=1;exitY=0.5;exitDx=0;exitDy=0;strokeColor=default;align=center;verticalAlign=middle;fontFamily=Helvetica;fontSize=11;fontColor=default;labelBackgroundColor=default;endArrow=none;endFill=0;" edge="1" parent="1" source="7aG0326rbREsG-0OaRxS-89" target="7aG0326rbREsG-0OaRxS-94">
          <mxGeometry relative="1" as="geometry" />
        </mxCell>
        <mxCell id="7aG0326rbREsG-0OaRxS-89" value="гео. локација" style="ellipse;whiteSpace=wrap;html=1;align=center;" vertex="1" parent="1">
          <mxGeometry x="880" y="220" width="90" height="40" as="geometry" />
        </mxCell>
        <mxCell id="7aG0326rbREsG-0OaRxS-93" value="гео. ширина" style="ellipse;whiteSpace=wrap;html=1;align=center;" vertex="1" parent="1">
          <mxGeometry x="930" y="145" width="80" height="45" as="geometry" />
        </mxCell>
        <mxCell id="7aG0326rbREsG-0OaRxS-94" value="гео. должина" style="ellipse;whiteSpace=wrap;html=1;align=center;" vertex="1" parent="1">
          <mxGeometry x="990" y="185" width="80" height="40" as="geometry" />
        </mxCell>
        <mxCell id="7aG0326rbREsG-0OaRxS-95" style="edgeStyle=none;rounded=0;orthogonalLoop=1;jettySize=auto;html=1;exitX=0.5;exitY=1;exitDx=0;exitDy=0;entryX=0.789;entryY=0.15;entryDx=0;entryDy=0;entryPerimeter=0;strokeColor=default;align=center;verticalAlign=middle;fontFamily=Helvetica;fontSize=11;fontColor=default;labelBackgroundColor=default;endArrow=none;endFill=0;" edge="1" parent="1" source="7aG0326rbREsG-0OaRxS-93" target="7aG0326rbREsG-0OaRxS-89">
          <mxGeometry relative="1" as="geometry" />
        </mxCell>
        <mxCell id="7aG0326rbREsG-0OaRxS-98" value="" style="edgeStyle=none;rounded=0;orthogonalLoop=1;jettySize=auto;html=1;strokeColor=default;align=center;verticalAlign=middle;fontFamily=Helvetica;fontSize=11;fontColor=default;labelBackgroundColor=default;endArrow=none;endFill=0;" edge="1" parent="1" source="7aG0326rbREsG-0OaRxS-97" target="7aG0326rbREsG-0OaRxS-82">
          <mxGeometry relative="1" as="geometry" />
        </mxCell>
        <mxCell id="7aG0326rbREsG-0OaRxS-97" value="држава" style="ellipse;whiteSpace=wrap;html=1;align=center;" vertex="1" parent="1">
          <mxGeometry x="440" y="175" width="100" height="40" as="geometry" />
        </mxCell>
        <mxCell id="7aG0326rbREsG-0OaRxS-101" value="" style="edgeStyle=none;rounded=0;orthogonalLoop=1;jettySize=auto;html=1;strokeColor=default;align=center;verticalAlign=middle;fontFamily=Helvetica;fontSize=11;fontColor=default;labelBackgroundColor=default;endArrow=none;endFill=0;" edge="1" parent="1" source="7aG0326rbREsG-0OaRxS-99" target="7aG0326rbREsG-0OaRxS-83">
          <mxGeometry relative="1" as="geometry" />
        </mxCell>
        <mxCell id="7aG0326rbREsG-0OaRxS-99" value="припаѓа" style="shape=rhombus;perimeter=rhombusPerimeter;whiteSpace=wrap;html=1;align=center;fontFamily=Helvetica;fontSize=11;fontColor=default;labelBackgroundColor=default;" vertex="1" parent="1">
          <mxGeometry x="630" y="235" width="70" height="50" as="geometry" />
        </mxCell>
        <mxCell id="7aG0326rbREsG-0OaRxS-102" value="N" style="text;strokeColor=none;align=center;fillColor=none;html=1;verticalAlign=middle;whiteSpace=wrap;rounded=0;fontFamily=Helvetica;fontSize=11;fontColor=default;labelBackgroundColor=default;" vertex="1" parent="1">
          <mxGeometry x="730" y="240" width="30" height="20" as="geometry" />
        </mxCell>
        <mxCell id="7aG0326rbREsG-0OaRxS-104" value="1" style="text;strokeColor=none;align=center;fillColor=none;html=1;verticalAlign=middle;whiteSpace=wrap;rounded=0;fontFamily=Helvetica;fontSize=11;fontColor=default;labelBackgroundColor=default;" vertex="1" parent="1">
          <mxGeometry x="560" y="240" width="30" height="20" as="geometry" />
        </mxCell>
        <mxCell id="7aG0326rbREsG-0OaRxS-115" style="edgeStyle=none;rounded=0;orthogonalLoop=1;jettySize=auto;html=1;exitX=1;exitY=1;exitDx=0;exitDy=0;strokeColor=default;align=center;verticalAlign=middle;fontFamily=Helvetica;fontSize=11;fontColor=default;labelBackgroundColor=default;endArrow=none;endFill=0;" edge="1" parent="1" source="7aG0326rbREsG-0OaRxS-107" target="7aG0326rbREsG-0OaRxS-114">
          <mxGeometry relative="1" as="geometry" />
        </mxCell>
        <mxCell id="7aG0326rbREsG-0OaRxS-107" value="соседен град" style="shape=rhombus;perimeter=rhombusPerimeter;whiteSpace=wrap;html=1;align=center;fontFamily=Helvetica;fontSize=11;fontColor=default;labelBackgroundColor=default;" vertex="1" parent="1">
          <mxGeometry x="465" y="345" width="90" height="50" as="geometry" />
        </mxCell>
        <mxCell id="7aG0326rbREsG-0OaRxS-112" value="N" style="text;strokeColor=none;align=center;fillColor=none;html=1;verticalAlign=middle;whiteSpace=wrap;rounded=0;fontFamily=Helvetica;fontSize=11;fontColor=default;labelBackgroundColor=default;" vertex="1" parent="1">
          <mxGeometry x="450" y="285" width="30" height="20" as="geometry" />
        </mxCell>
        <mxCell id="7aG0326rbREsG-0OaRxS-113" value="М" style="text;strokeColor=none;align=center;fillColor=none;html=1;verticalAlign=middle;whiteSpace=wrap;rounded=0;fontFamily=Helvetica;fontSize=11;fontColor=default;labelBackgroundColor=default;" vertex="1" parent="1">
          <mxGeometry x="540" y="285" width="30" height="20" as="geometry" />
        </mxCell>
        <mxCell id="7aG0326rbREsG-0OaRxS-114" value="растојание" style="ellipse;whiteSpace=wrap;html=1;align=center;" vertex="1" parent="1">
          <mxGeometry x="540" y="400" width="70" height="40" as="geometry" />
        </mxCell>
        <mxCell id="7aG0326rbREsG-0OaRxS-123" value="" style="edgeStyle=none;rounded=0;orthogonalLoop=1;jettySize=auto;html=1;strokeColor=default;align=center;verticalAlign=middle;fontFamily=Helvetica;fontSize=11;fontColor=default;labelBackgroundColor=default;endArrow=none;endFill=0;" edge="1" parent="1" source="7aG0326rbREsG-0OaRxS-116" target="7aG0326rbREsG-0OaRxS-122">
          <mxGeometry relative="1" as="geometry" />
        </mxCell>
        <mxCell id="7aG0326rbREsG-0OaRxS-116" value="&lt;font style=&quot;font-size: 14px;&quot;&gt;Туристичка агенција&lt;/font&gt;" style="whiteSpace=wrap;html=1;align=center;fontFamily=Helvetica;fontSize=11;fontColor=default;labelBackgroundColor=default;" vertex="1" parent="1">
          <mxGeometry x="180" y="-160" width="100" height="40" as="geometry" />
        </mxCell>
        <mxCell id="7aG0326rbREsG-0OaRxS-124" value="" style="edgeStyle=none;rounded=0;orthogonalLoop=1;jettySize=auto;html=1;strokeColor=default;align=center;verticalAlign=middle;fontFamily=Helvetica;fontSize=11;fontColor=default;labelBackgroundColor=default;endArrow=none;endFill=0;shape=link;" edge="1" parent="1" source="7aG0326rbREsG-0OaRxS-117" target="7aG0326rbREsG-0OaRxS-122">
          <mxGeometry relative="1" as="geometry" />
        </mxCell>
        <mxCell id="7aG0326rbREsG-0OaRxS-126" style="edgeStyle=none;rounded=0;orthogonalLoop=1;jettySize=auto;html=1;exitX=0.5;exitY=1;exitDx=0;exitDy=0;entryX=0.5;entryY=0;entryDx=0;entryDy=0;strokeColor=default;align=center;verticalAlign=middle;fontFamily=Helvetica;fontSize=11;fontColor=default;labelBackgroundColor=default;endArrow=none;endFill=0;shape=link;" edge="1" parent="1" source="7aG0326rbREsG-0OaRxS-117" target="7aG0326rbREsG-0OaRxS-125">
          <mxGeometry relative="1" as="geometry" />
        </mxCell>
        <mxCell id="7aG0326rbREsG-0OaRxS-135" style="edgeStyle=none;rounded=0;orthogonalLoop=1;jettySize=auto;html=1;exitX=1;exitY=0.5;exitDx=0;exitDy=0;entryX=0;entryY=1;entryDx=0;entryDy=0;strokeColor=default;align=center;verticalAlign=middle;fontFamily=Helvetica;fontSize=11;fontColor=default;labelBackgroundColor=default;endArrow=none;endFill=0;" edge="1" parent="1" source="7aG0326rbREsG-0OaRxS-117" target="7aG0326rbREsG-0OaRxS-132">
          <mxGeometry relative="1" as="geometry" />
        </mxCell>
        <mxCell id="7aG0326rbREsG-0OaRxS-136" style="edgeStyle=none;rounded=0;orthogonalLoop=1;jettySize=auto;html=1;exitX=1;exitY=1;exitDx=0;exitDy=0;entryX=0;entryY=1;entryDx=0;entryDy=0;strokeColor=default;align=center;verticalAlign=middle;fontFamily=Helvetica;fontSize=11;fontColor=default;labelBackgroundColor=default;endArrow=none;endFill=0;" edge="1" parent="1" source="7aG0326rbREsG-0OaRxS-117" target="7aG0326rbREsG-0OaRxS-133">
          <mxGeometry relative="1" as="geometry" />
        </mxCell>
        <mxCell id="7aG0326rbREsG-0OaRxS-117" value="&lt;font style=&quot;font-size: 14px;&quot;&gt;Патување&lt;/font&gt;" style="whiteSpace=wrap;html=1;align=center;fontFamily=Helvetica;fontSize=11;fontColor=default;labelBackgroundColor=default;" vertex="1" parent="1">
          <mxGeometry x="520" y="-160" width="100" height="40" as="geometry" />
        </mxCell>
        <mxCell id="7aG0326rbREsG-0OaRxS-120" style="edgeStyle=none;rounded=0;orthogonalLoop=1;jettySize=auto;html=1;exitX=0.5;exitY=1;exitDx=0;exitDy=0;entryX=0.25;entryY=0;entryDx=0;entryDy=0;strokeColor=default;align=center;verticalAlign=middle;fontFamily=Helvetica;fontSize=11;fontColor=default;labelBackgroundColor=default;endArrow=none;endFill=0;" edge="1" parent="1" source="7aG0326rbREsG-0OaRxS-118" target="7aG0326rbREsG-0OaRxS-116">
          <mxGeometry relative="1" as="geometry" />
        </mxCell>
        <mxCell id="7aG0326rbREsG-0OaRxS-118" value="име" style="ellipse;whiteSpace=wrap;html=1;align=center;" vertex="1" parent="1">
          <mxGeometry x="110" y="-220" width="100" height="40" as="geometry" />
        </mxCell>
        <mxCell id="7aG0326rbREsG-0OaRxS-121" style="edgeStyle=none;rounded=0;orthogonalLoop=1;jettySize=auto;html=1;exitX=0.5;exitY=1;exitDx=0;exitDy=0;entryX=0.75;entryY=0;entryDx=0;entryDy=0;strokeColor=default;align=center;verticalAlign=middle;fontFamily=Helvetica;fontSize=11;fontColor=default;labelBackgroundColor=default;endArrow=none;endFill=0;" edge="1" parent="1" source="7aG0326rbREsG-0OaRxS-119" target="7aG0326rbREsG-0OaRxS-116">
          <mxGeometry relative="1" as="geometry" />
        </mxCell>
        <mxCell id="7aG0326rbREsG-0OaRxS-119" value="локација" style="ellipse;whiteSpace=wrap;html=1;align=center;" vertex="1" parent="1">
          <mxGeometry x="240" y="-220" width="100" height="40" as="geometry" />
        </mxCell>
        <mxCell id="7aG0326rbREsG-0OaRxS-122" value="организира" style="shape=rhombus;perimeter=rhombusPerimeter;whiteSpace=wrap;html=1;align=center;fontFamily=Helvetica;fontSize=11;fontColor=default;labelBackgroundColor=default;" vertex="1" parent="1">
          <mxGeometry x="360" y="-160" width="90" height="40" as="geometry" />
        </mxCell>
        <mxCell id="7aG0326rbREsG-0OaRxS-127" style="edgeStyle=none;rounded=0;orthogonalLoop=1;jettySize=auto;html=1;exitX=0.5;exitY=1;exitDx=0;exitDy=0;entryX=0.5;entryY=0;entryDx=0;entryDy=0;strokeColor=default;align=center;verticalAlign=middle;fontFamily=Helvetica;fontSize=11;fontColor=default;labelBackgroundColor=default;endArrow=none;endFill=0;" edge="1" parent="1" source="7aG0326rbREsG-0OaRxS-125" target="7aG0326rbREsG-0OaRxS-79">
          <mxGeometry relative="1" as="geometry" />
        </mxCell>
        <mxCell id="7aG0326rbREsG-0OaRxS-125" value="посетува" style="shape=rhombus;perimeter=rhombusPerimeter;whiteSpace=wrap;html=1;align=center;fontFamily=Helvetica;fontSize=11;fontColor=default;labelBackgroundColor=default;" vertex="1" parent="1">
          <mxGeometry x="555" y="-40" width="90" height="40" as="geometry" />
        </mxCell>
        <mxCell id="7aG0326rbREsG-0OaRxS-129" value="N" style="text;strokeColor=none;align=center;fillColor=none;html=1;verticalAlign=middle;whiteSpace=wrap;rounded=0;fontFamily=Helvetica;fontSize=11;fontColor=default;labelBackgroundColor=default;" vertex="1" parent="1">
          <mxGeometry x="490" y="-170" width="30" height="20" as="geometry" />
        </mxCell>
        <mxCell id="7aG0326rbREsG-0OaRxS-130" value="1" style="text;strokeColor=none;align=center;fillColor=none;html=1;verticalAlign=middle;whiteSpace=wrap;rounded=0;fontFamily=Helvetica;fontSize=11;fontColor=default;labelBackgroundColor=default;" vertex="1" parent="1">
          <mxGeometry x="280" y="-170" width="30" height="20" as="geometry" />
        </mxCell>
        <mxCell id="7aG0326rbREsG-0OaRxS-131" value="почетен датум" style="ellipse;whiteSpace=wrap;html=1;align=center;" vertex="1" parent="1">
          <mxGeometry x="555" y="-230" width="100" height="40" as="geometry" />
        </mxCell>
        <mxCell id="7aG0326rbREsG-0OaRxS-132" value="краен датум" style="ellipse;whiteSpace=wrap;html=1;align=center;" vertex="1" parent="1">
          <mxGeometry x="635" y="-190" width="100" height="40" as="geometry" />
        </mxCell>
        <mxCell id="7aG0326rbREsG-0OaRxS-133" value="цена" style="ellipse;whiteSpace=wrap;html=1;align=center;" vertex="1" parent="1">
          <mxGeometry x="635" y="-130" width="100" height="40" as="geometry" />
        </mxCell>
        <mxCell id="7aG0326rbREsG-0OaRxS-134" style="edgeStyle=none;rounded=0;orthogonalLoop=1;jettySize=auto;html=1;exitX=0.5;exitY=1;exitDx=0;exitDy=0;entryX=0.6;entryY=0.05;entryDx=0;entryDy=0;entryPerimeter=0;strokeColor=default;align=center;verticalAlign=middle;fontFamily=Helvetica;fontSize=11;fontColor=default;labelBackgroundColor=default;endArrow=none;endFill=0;" edge="1" parent="1" source="7aG0326rbREsG-0OaRxS-131" target="7aG0326rbREsG-0OaRxS-117">
          <mxGeometry relative="1" as="geometry" />
        </mxCell>
        <mxCell id="7aG0326rbREsG-0OaRxS-139" style="edgeStyle=none;rounded=0;orthogonalLoop=1;jettySize=auto;html=1;exitX=1;exitY=0.5;exitDx=0;exitDy=0;strokeColor=default;align=center;verticalAlign=middle;fontFamily=Helvetica;fontSize=11;fontColor=default;labelBackgroundColor=default;endArrow=none;endFill=0;shape=link;" edge="1" parent="1" source="7aG0326rbREsG-0OaRxS-137">
          <mxGeometry relative="1" as="geometry">
            <mxPoint x="520" y="-140" as="targetPoint" />
          </mxGeometry>
        </mxCell>
        <mxCell id="7aG0326rbREsG-0OaRxS-137" value="присуствува" style="shape=rhombus;perimeter=rhombusPerimeter;whiteSpace=wrap;html=1;align=center;fontFamily=Helvetica;fontSize=11;fontColor=default;labelBackgroundColor=default;" vertex="1" parent="1">
          <mxGeometry x="340" y="-10" width="90" height="40" as="geometry" />
        </mxCell>
        <mxCell id="7aG0326rbREsG-0OaRxS-140" value="M" style="text;strokeColor=none;align=center;fillColor=none;html=1;verticalAlign=middle;whiteSpace=wrap;rounded=0;fontFamily=Helvetica;fontSize=11;fontColor=default;labelBackgroundColor=default;" vertex="1" parent="1">
          <mxGeometry x="490" y="-125" width="60" height="30" as="geometry" />
        </mxCell>
        <mxCell id="7aG0326rbREsG-0OaRxS-141" value="N" style="text;strokeColor=none;align=center;fillColor=none;html=1;verticalAlign=middle;whiteSpace=wrap;rounded=0;fontFamily=Helvetica;fontSize=11;fontColor=default;labelBackgroundColor=default;" vertex="1" parent="1">
          <mxGeometry x="205" y="140" width="40" height="25" as="geometry" />
        </mxCell>
        <mxCell id="7aG0326rbREsG-0OaRxS-145" style="edgeStyle=none;rounded=0;orthogonalLoop=1;jettySize=auto;html=1;exitX=1;exitY=0.5;exitDx=0;exitDy=0;entryX=0;entryY=0.5;entryDx=0;entryDy=0;strokeColor=default;align=center;verticalAlign=middle;fontFamily=Helvetica;fontSize=11;fontColor=default;labelBackgroundColor=default;endArrow=none;endFill=0;" edge="1" parent="1" source="7aG0326rbREsG-0OaRxS-143" target="7aG0326rbREsG-0OaRxS-79">
          <mxGeometry relative="1" as="geometry" />
        </mxCell>
        <mxCell id="7aG0326rbREsG-0OaRxS-148" style="edgeStyle=none;rounded=0;orthogonalLoop=1;jettySize=auto;html=1;exitX=0.5;exitY=0;exitDx=0;exitDy=0;entryX=0.25;entryY=1;entryDx=0;entryDy=0;strokeColor=default;align=center;verticalAlign=middle;fontFamily=Helvetica;fontSize=11;fontColor=default;labelBackgroundColor=default;endArrow=none;endFill=0;" edge="1" parent="1" source="7aG0326rbREsG-0OaRxS-143" target="7aG0326rbREsG-0OaRxS-117">
          <mxGeometry relative="1" as="geometry" />
        </mxCell>
        <mxCell id="7aG0326rbREsG-0OaRxS-143" value="факутативна&lt;br&gt;&amp;nbsp;посета" style="shape=rhombus;perimeter=rhombusPerimeter;whiteSpace=wrap;html=1;align=center;fontFamily=Helvetica;fontSize=11;fontColor=default;labelBackgroundColor=default;" vertex="1" parent="1">
          <mxGeometry x="410" y="60" width="120" height="60" as="geometry" />
        </mxCell>
        <mxCell id="7aG0326rbREsG-0OaRxS-146" value="N" style="text;strokeColor=none;align=center;fillColor=none;html=1;verticalAlign=middle;whiteSpace=wrap;rounded=0;fontFamily=Helvetica;fontSize=11;fontColor=default;labelBackgroundColor=default;" vertex="1" parent="1">
          <mxGeometry x="560" y="75" width="40" height="25" as="geometry" />
        </mxCell>
        <mxCell id="7aG0326rbREsG-0OaRxS-147" value="M" style="text;strokeColor=none;align=center;fillColor=none;html=1;verticalAlign=middle;whiteSpace=wrap;rounded=0;fontFamily=Helvetica;fontSize=11;fontColor=default;labelBackgroundColor=default;" vertex="1" parent="1">
          <mxGeometry x="260" y="130" width="40" height="15" as="geometry" />
        </mxCell>
      </root>
    </mxGraphModel>
  </diagram>
</mxfile>
